PathFileType	4	(X/Y/Z)	\\Move.snu.ac.kr\motion\Animal\091204_091205_Bird\091205_bird\Project 2\Capture day 2\Session 1\pigeon_029.trc
DataRate	CameraRate	NumFrames	NumMarkers	Units	OrigDataRate	OrigDataStartFrame	OrigNumFrames
240.0	240.0	20	14	mm	240.0	104	3339
Frame#	Time	14MarkersBird:Head			14MarkersBird:C_back			14MarkersBird:Spine			14MarkersBird:L-shoulder			14MarkersBird:L-elbow			14MarkersBird:L-wrist			14MarkersBird:L-hand			14MarkersBird:R-shoulder			14MarkersBird:R-elbow			14MarkersBird:R-Wrist			14MarkersBird:R-hand			14MarkersBird:C_Tail			14MarkersBird:L-Tale			14MarkersBird:R-Tale			
		X1	Y1	Z1	X2	Y2	Z2	X3	Y3	Z3	X4	Y4	Z4	X5	Y5	Z5	X6	Y6	Z6	X7	Y7	Z7	X8	Y8	Z8	X9	Y9	Z9	X10	Y10	Z10	X11	Y11	Z11	X12	Y12	Z12	X13	Y13	Z13	X14	Y14	Z14	

2539	10.575	-409.64166	1872.84802	-1483.64270	-350.43906	1872.44788	-1499.91406	-295.48993	1859.88220	-1515.93945	-368.38849	1875.33435	-1472.18237	-332.40302	1889.09949	-1491.63452	-347.01135	1919.18152	-1462.16101	-319.24435	1920.84033	-1450.72705	-378.79825	1869.88049	-1511.96423	-343.14282	1888.47070	-1520.21643	-372.26352	1907.16333	-1544.77380	-362.95407	1895.85315	-1579.79346	-208.74426	1766.94690	-1516.76025	-236.68494	1832.78064	-1432.79773	-283.16724	1792.89136	-1610.22253	
2540	10.579	-418.17389	1872.90173	-1483.17688	-358.75522	1870.96924	-1498.82593	-303.69257	1858.50854	-1514.51550	-376.61682	1874.37708	-1471.78088	-342.66269	1888.74121	-1493.39453	-354.23593	1922.31396	-1465.82556	-325.54877	1930.20679	-1460.21460	-386.75220	1869.31177	-1510.99548	-351.22794	1888.73340	-1516.04785	-377.06232	1911.95996	-1541.08679	-361.31073	1910.65417	-1576.28516	-216.39122	1766.31665	-1514.15588	-245.21800	1833.89355	-1430.97131	-289.64377	1793.44067	-1609.41284	
2541	10.583	-426.60986	1872.94116	-1482.67102	-366.80627	1869.49548	-1497.94702	-311.74213	1856.97400	-1513.17529	-384.60995	1873.25916	-1471.32751	-353.01276	1888.42102	-1494.10767	-361.72534	1924.86548	-1468.46289	-334.08649	1937.73352	-1469.07239	-394.76425	1868.47009	-1510.28418	-361.25235	1888.93799	-1513.38770	-382.94226	1915.79114	-1537.77686	-361.76492	1923.87427	-1570.16211	-223.24881	1766.25598	-1512.01270	-253.76941	1834.68616	-1429.16296	-296.38354	1793.66321	-1608.55884	
2542	10.587	-434.91876	1872.90820	-1482.13428	-374.64517	1868.04907	-1497.23376	-319.55841	1855.23987	-1511.90222	-392.47635	1872.20557	-1470.78113	-363.29843	1888.26953	-1493.79602	-369.41986	1926.66443	-1469.53442	-344.04709	1943.02979	-1475.86938	-402.86917	1867.43018	-1509.87573	-371.62082	1888.77002	-1512.58899	-389.97052	1918.38708	-1535.55908	-365.17258	1934.53687	-1563.44019	-229.33191	1766.85681	-1510.25952	-262.42285	1835.24951	-1427.35669	-303.68842	1793.34521	-1607.66357	
2543	10.592	-443.08780	1872.74719	-1481.61279	-382.32498	1866.65161	-1496.64246	-326.72015	1853.05347	-1510.61292	-400.32050	1871.31702	-1470.11768	-373.22928	1888.21936	-1492.46216	-377.14215	1927.52429	-1468.56726	-354.49161	1946.29688	-1479.08850	-411.07050	1866.24329	-1509.80383	-381.66385	1888.31299	-1513.28931	-398.02844	1919.40051	-1535.15503	-371.99438	1941.96362	-1558.55994	-234.87283	1768.06799	-1508.78809	-271.19641	1835.72290	-1425.61682	-311.61938	1792.51831	-1606.77844	
2544	10.596	-451.11368	1872.44299	-1481.12122	-389.89862	1865.32556	-1496.12952	-334.03976	1850.87109	-1509.36975	-408.22723	1870.55237	-1469.35229	-382.57141	1888.09924	-1490.12964	-384.65564	1927.18921	-1465.22083	-364.61462	1947.98999	-1477.45557	-419.31812	1864.89783	-1510.05078	-391.07556	1887.55347	-1515.11182	-406.83133	1918.48755	-1537.04492	-381.98734	1945.56567	-1557.69373	-240.27277	1769.66187	-1507.50781	-280.06375	1836.21655	-1424.03442	-320.00943	1791.37524	-1605.93933	
2545	10.600	-459.01056	1872.03589	-1480.63525	-397.41913	1864.09277	-1495.65149	-341.84927	1848.92700	-1508.21912	-416.25665	1869.84656	-1468.53564	-391.26730	1887.75842	-1486.85095	-391.82605	1925.31860	-1459.39758	-373.95035	1948.25598	-1470.34180	-427.57333	1863.37622	-1510.49341	-399.87836	1886.25415	-1517.68701	-416.11169	1915.38330	-1541.24170	-394.30222	1944.74646	-1561.87000	-245.94908	1771.30859	-1506.37476	-288.96790	1836.72351	-1422.65234	-328.57626	1790.13403	-1605.12720	
2546	10.604	-466.83060	1871.60278	-1480.10266	-404.93945	1862.97571	-1495.16431	-350.04132	1847.26025	-1507.15808	-424.43329	1869.17749	-1467.72742	-399.38739	1887.08435	-1482.63550	-398.83383	1921.63245	-1451.43933	-382.56699	1946.59351	-1458.11694	-435.88388	1861.70251	-1510.92871	-408.55130	1884.14807	-1520.62390	-425.82974	1910.00000	-1547.16895	-408.09232	1939.11084	-1570.45374	-252.17863	1772.69434	-1505.36536	-297.83850	1837.04358	-1421.41882	-337.05331	1788.90039	-1604.26526	
2547	10.608	-474.66498	1871.21460	-1479.47119	-412.51270	1861.99597	-1494.62476	-358.47330	1845.90552	-1506.17590	-432.73077	1868.51160	-1466.94348	-407.07294	1885.95288	-1477.43835	-406.23358	1916.03894	-1442.10718	-391.22165	1942.08960	-1442.24719	-444.34274	1859.91553	-1511.16052	-417.71921	1881.12256	-1523.57361	-436.21155	1902.45020	-1553.79761	-423.09888	1928.76880	-1581.43616	-259.04178	1773.61169	-1504.43738	-306.61710	1836.82593	-1420.21094	-345.28537	1787.58203	-1603.24207	
2548	10.613	-482.60248	1870.88501	-1478.73743	-420.19174	1861.17603	-1493.98938	-367.00186	1844.89758	-1505.26086	-441.08569	1867.72314	-1466.14551	-414.62610	1884.18323	-1471.33606	-414.81079	1908.58313	-1432.30981	-401.14560	1934.07385	-1424.92761	-453.00275	1858.04602	-1511.10925	-427.48465	1877.51465	-1526.08423	-447.61487	1893.03271	-1559.93616	-439.56955	1914.39001	-1592.25610	-266.48618	1773.96667	-1503.51208	-315.28412	1835.77942	-1418.92627	-353.23669	1785.98047	-1601.96558	
2549	10.617	-490.68094	1870.55859	-1477.93958	-428.02844	1860.53723	-1493.21509	-375.48343	1844.27100	-1504.40173	-449.45361	1866.69519	-1465.27649	-422.51956	1881.58008	-1464.65320	-425.28094	1899.39368	-1422.94763	-413.39142	1922.58887	-1408.40369	-461.81888	1856.13428	-1510.80676	-437.47876	1873.72510	-1528.12537	-460.31604	1882.17029	-1564.47815	-457.65964	1897.02222	-1600.55432	-274.42380	1773.75378	-1502.50061	-323.86514	1833.89746	-1417.55981	-360.94565	1784.02612	-1600.41736	
2550	10.621	-498.89111	1870.17297	-1477.11133	-436.04840	1860.09412	-1492.27979	-383.77667	1844.06091	-1503.58691	-457.84894	1865.43677	-1464.28394	-431.16791	1878.04736	-1457.88330	-437.95001	1888.70813	-1414.90796	-428.36282	1908.25708	-1394.41760	-470.67688	1854.30151	-1510.29199	-448.63708	1868.75769	-1530.71606	-474.32721	1870.32117	-1566.53870	-477.11505	1877.79456	-1604.61792	-282.78448	1773.02710	-1501.36597	-332.39072	1831.47864	-1416.19958	-368.47467	1781.92993	-1598.67920	
2551	10.625	-507.20892	1869.70105	-1476.27808	-444.18466	1859.87573	-1491.21448	-391.78995	1844.29480	-1502.80676	-466.32120	1864.07178	-1463.14600	-440.71671	1873.66602	-1451.55969	-452.57538	1876.93921	-1409.02808	-445.85287	1891.89099	-1384.14233	-479.47458	1852.75488	-1509.56812	-460.87738	1862.97156	-1532.47791	-489.30194	1858.01367	-1565.51428	-497.28500	1857.79956	-1603.46069	-291.52136	1771.88953	-1500.18835	-340.84384	1828.94336	-1414.96912	-375.87949	1780.11328	-1596.91724	
2552	10.629	-515.61627	1869.11707	-1475.44263	-452.31595	1859.91187	-1490.08643	-399.68680	1844.94800	-1502.01538	-474.88101	1862.75940	-1461.91223	-451.01569	1868.69043	-1446.15051	-468.49933	1864.76929	-1405.97498	-465.25977	1874.32703	-1378.39734	-488.17169	1851.65051	-1508.63013	-473.27991	1857.03418	-1533.26782	-504.54358	1845.96228	-1561.16675	-517.15631	1838.22351	-1596.73718	-300.58694	1770.48621	-1499.15918	-349.15027	1826.62061	-1413.97046	-383.21490	1778.97778	-1595.32666	
2553	10.633	-524.11395	1868.36377	-1474.58716	-460.42090	1860.04102	-1489.01001	-407.82001	1845.80017	-1501.12024	-483.49597	1861.62000	-1460.67957	-461.67645	1863.48853	-1441.95154	-484.85367	1853.18506	-1406.05469	-485.67767	1856.55566	-1377.72839	-496.79651	1850.96863	-1507.50061	-485.53790	1851.27319	-1532.84131	-519.17468	1835.04102	-1553.78223	-535.50751	1820.42017	-1584.73962	-309.91010	1768.97827	-1498.49121	-357.23328	1824.63513	-1413.24829	-390.55963	1778.70850	-1594.06177	
2554	10.637	-532.72559	1867.36987	-1473.69617	-468.57922	1860.24170	-1488.02466	-416.08167	1846.46375	-1500.18481	-492.16315	1860.72961	-1459.52637	-472.21201	1858.46472	-1439.05786	-500.75024	1843.35364	-1408.99902	-505.94250	1839.93127	-1382.18579	-505.43973	1850.55762	-1506.25195	-497.25311	1846.05859	-1531.24622	-532.42316	1826.16809	-1544.25110	-551.33032	1805.73730	-1568.54248	-319.40445	1767.49768	-1498.28918	-365.10703	1822.89771	-1412.77820	-398.02640	1779.20667	-1593.17993	
2555	10.642	-541.49030	1866.09033	-1472.77905	-476.92014	1860.46741	-1487.12305	-424.49146	1846.83289	-1499.18811	-500.99429	1860.07935	-1458.49109	-482.18857	1853.99341	-1437.36279	-515.45856	1836.33484	-1413.91406	-524.85571	1826.19507	-1390.97656	-514.18231	1850.27271	-1505.01501	-507.93619	1841.75452	-1529.01697	-543.87823	1820.13928	-1533.99292	-564.22589	1795.29846	-1550.07825	-328.99503	1766.11560	-1498.47644	-372.94260	1821.16370	-1412.45752	-405.76025	1780.11926	-1592.60950	
2556	10.646	-550.43829	1864.52917	-1471.87659	-485.57248	1860.64001	-1486.27844	-433.12671	1846.84998	-1498.12695	-510.16638	1859.54199	-1457.58496	-491.33167	1850.38403	-1436.58545	-528.53088	1832.77808	-1419.45642	-541.50897	1817.05676	-1402.27661	-523.05188	1850.03894	-1503.93481	-517.25696	1838.61279	-1526.86182	-553.59174	1817.43054	-1524.68506	-574.50433	1789.79602	-1531.87830	-338.65323	1764.83716	-1498.80701	-381.03052	1819.15796	-1412.13269	-413.89032	1780.95728	-1592.16882	
2557	10.650	-559.58789	1862.72839	-1471.03577	-494.62704	1860.66858	-1485.44739	-442.04337	1846.50586	-1497.03027	-519.72620	1858.97546	-1456.79614	-499.56146	1847.86353	-1436.35913	-539.77661	1832.74768	-1424.21277	-555.44910	1813.47754	-1413.48145	-532.03918	1849.80737	-1503.06921	-525.16089	1836.77625	-1525.39331	-561.95148	1818.00708	-1517.84399	-582.94806	1789.25879	-1516.50793	-348.41623	1763.60547	-1498.94861	-389.64954	1816.74438	-1411.66455	-422.44766	1781.28516	-1591.62793	
2558	10.654	-568.95618	1860.74268	-1470.28308	-504.11267	1860.43872	-1484.58459	-451.26709	1845.87964	-1495.92444	-529.53741	1858.30200	-1456.08411	-506.96591	1846.56543	-1436.39575	-549.20264	1835.69153	-1427.16675	-566.72070	1815.14038	-1421.94446	-541.13928	1849.50708	-1502.36365	-531.83716	1836.33228	-1524.90320	-569.42419	1821.28711	-1514.35645	-590.45966	1792.78271	-1505.98047	-358.35202	1762.32104	-1498.60205	-398.93369	1814.02625	-1410.97839	-431.32843	1780.87085	-1590.78455	
